<svg version="1.0" xmlns="http://www.w3.org/2000/svg"
 width="555pt" height="555pt" viewBox="0 0 555 555"
 preserveAspectRatio="xMidYMid meet">

<g transform="translate(0.000000,555.000000) scale(0.100000,-0.100000)"
fill="#333333" stroke="none">
<path d="M1331 4730 c-129 -47 -226 -145 -271 -274 -28 -81 -28 -239 -1 -319
39 -111 126 -207 239 -260 65 -31 72 -32 198 -32 130 0 130 0 205 37 315 156
343 599 52 800 -74 50 -143 68 -262 68 -79 -1 -120 -6 -160 -20z"/>
<path d="M3714 3599 c-226 -21 -406 -108 -552 -263 l-61 -66 -3 132 -3 133
-380 0 -380 0 -3 -1232 -2 -1233 399 0 400 0 3 713 c4 693 4 714 25 789 62
221 184 318 398 318 186 0 279 -66 343 -241 l27 -74 2 -730 c2 -401 5 -740 8
-752 l5 -23 396 0 395 0 -4 868 c-5 929 -4 914 -57 1094 -106 354 -334 531
-735 568 -60 5 -117 9 -125 9 -8 -1 -52 -5 -96 -10z"/>
<path d="M1095 3518 c-3 -13 -4 -567 -3 -1233 l3 -1210 400 0 400 0 0 1230 0
1230 -397 3 -398 2 -5 -22z"/>
</g>
</svg>
