<svg version="1.0" xmlns="http://www.w3.org/2000/svg"
 width="555pt" height="555pt" viewBox="0 0 555 555"
 preserveAspectRatio="xMidYMid meet">

<g transform="translate(0.000000,555.000000) scale(0.100000,-0.100000)"
fill="#333333" stroke="none">
<path d="M972 3972 c2 -5 273 -271 603 -592 330 -321 697 -679 816 -795 261
-257 281 -269 423 -263 70 2 102 8 139 26 33 17 162 136 440 406 215 210 583
568 817 795 234 228 427 417 428 422 2 5 -784 9 -1833 9 -1010 0 -1835 -4
-1833 -8z"/>
<path d="M900 2785 c0 -893 3 -1125 13 -1125 6 0 157 141 333 313 177 171 432
420 568 551 135 132 246 247 246 256 0 16 -117 134 -545 550 -110 107 -289
282 -398 388 -109 105 -202 192 -207 192 -6 0 -10 -417 -10 -1125z"/>
<path d="M4552 3777 c-73 -73 -250 -246 -395 -386 -452 -439 -607 -594 -607
-611 0 -9 111 -125 248 -257 136 -132 391 -380 567 -552 176 -171 326 -311
333 -311 9 0 12 232 12 1125 0 894 -3 1125 -12 1124 -7 0 -73 -60 -146 -132z"/>
<path d="M1965 2572 c-179 -174 -701 -681 -867 -842 -65 -62 -118 -119 -118
-127 0 -11 309 -13 1825 -13 1508 0 1825 2 1825 13 0 8 -53 64 -117 126 -65
63 -190 184 -278 270 -567 552 -739 716 -755 716 -9 0 -110 -90 -224 -200
-160 -155 -222 -208 -273 -235 -65 -34 -70 -35 -177 -35 -165 0 -189 14 -453
271 -114 112 -215 203 -223 203 -8 0 -83 -66 -165 -147z"/>
</g>
</svg>
