<svg version="1.0" xmlns="http://www.w3.org/2000/svg"
 width="555pt" height="555pt" viewBox="0 0 555 555"
 preserveAspectRatio="xMidYMid meet">

<g transform="translate(0.000000,555.000000) scale(0.100000,-0.100000)"
fill="#333333" stroke="none">
<path d="M2580 4725 c-204 -33 -429 -127 -590 -249 -90 -67 -227 -205 -297
-296 -60 -80 -158 -260 -194 -359 -17 -47 -43 -135 -57 -196 -25 -102 -27
-127 -27 -335 0 -246 6 -289 66 -475 40 -128 105 -255 216 -427 48 -75 104
-163 124 -195 33 -54 165 -265 214 -343 12 -19 75 -120 140 -225 65 -104 155
-248 200 -320 106 -169 109 -174 93 -180 -7 -2 -109 -22 -225 -45 -678 -128
-701 -133 -748 -164 -16 -10 -25 -26 -25 -42 0 -21 9 -29 53 -49 164 -75 610
-115 1277 -115 667 0 1113 40 1278 115 43 20 52 28 52 50 0 55 -42 68 -610
175 -206 39 -383 74 -392 78 -14 6 -10 17 30 79 26 40 60 94 76 120 16 27 39
64 51 83 28 46 120 191 160 255 29 46 135 216 305 489 36 58 89 144 119 193
30 48 69 111 86 138 86 133 164 330 202 505 26 123 26 479 -1 600 -132 606
-582 1048 -1156 1135 -116 18 -306 18 -420 0z m310 -606 c217 -35 409 -159
528 -342 260 -398 119 -942 -299 -1153 -352 -177 -779 -39 -976 316 -149 268
-134 592 38 850 92 137 230 244 383 295 127 43 216 52 326 34z m-262 -3209
c47 -56 98 -80 168 -80 75 0 137 30 173 82 l26 39 126 -6 c70 -3 169 -12 220
-20 184 -27 222 -57 113 -86 -128 -35 -268 -44 -654 -44 -386 0 -527 9 -653
44 -100 27 -87 48 49 75 89 18 226 33 328 35 69 1 69 1 104 -39z"/>
</g>
</svg>
