<svg version="1.0" xmlns="http://www.w3.org/2000/svg"
    width="555pt" height="555pt" viewBox="0 0 555 555"
    preserveAspectRatio="xMidYMid meet">
   
   <g transform="translate(0,555) scale(0.1,-0.1)"
   fill="#333333" stroke="none">
   <path d="M4475 4441 c-16 -4 -106 -37 -200 -73 -93 -37 -354 -137 -580 -223
   -225 -86 -525 -201 -665 -255 -140 -54 -451 -173 -690 -265 -239 -91 -502
   -192 -585 -224 -82 -33 -280 -109 -440 -170 -844 -321 -963 -370 -1003 -414
   -56 -60 -57 -138 -3 -176 29 -21 32 -22 431 -144 648 -199 691 -211 719 -200
   22 8 713 438 2052 1277 277 174 353 217 383 218 45 2 65 -15 50 -40 -9 -14
   -325 -305 -679 -626 -67 -61 -782 -710 -910 -826 -22 -20 -91 -84 -154 -141
   -63 -57 -130 -118 -149 -134 l-35 -31 -28 -359 c-48 -622 -53 -685 -46 -691
   11 -11 113 26 159 58 25 18 137 121 249 229 280 269 292 280 299 277 4 -2 192
   -140 419 -308 579 -428 605 -446 667 -469 103 -39 194 -21 241 48 39 58 61
   135 128 448 36 170 109 508 161 753 53 245 108 506 124 580 16 74 49 234 75
   355 25 121 53 249 61 285 15 65 104 480 170 795 53 252 42 345 -49 419 -29 23
   -49 30 -89 32 -29 2 -66 -1 -83 -5z"/>
   </g>
   </svg>